{
	"asset":{
		"generator":"Khronos glTF Blender I/O v4.3.47",
		"version":"2.0"
	},
	"scene":0,
	"scenes":[
		{
			"name":"Scene",
			"nodes":[
				0,
				1,
				2,
				3,
				4,
				9
			]
		}
	],
	"nodes":[
		{
			"name":"CajaL28",
			"rotation":[
				0,
				-0.7777664661407471,
				0,
				0.6285533308982849
			],
			"scale":[
				1.231650948524475,
				1.2316508293151855,
				1.231650948524475
			],
			"translation":[
				47.829673767089844,
				-0.1799212098121643,
				-53.219520568847656
			]
		},
		{
			"name":"Barril5",
			"rotation":[
				0,
				0.97756028175354,
				0,
				0.21065592765808105
			],
			"scale":[
				1.2316508293151855,
				1.2316508293151855,
				1.2316508293151855
			],
			"translation":[
				81.71867370605469,
				0.04094576835632324,
				26.75008773803711
			]
		},
		{
			"name":"Barril3",
			"rotation":[
				0,
				0.8354880213737488,
				0,
				0.5495086312294006
			],
			"scale":[
				1.231650948524475,
				1.2316508293151855,
				1.231650948524475
			],
			"translation":[
				59.60667037963867,
				0.04094576835632324,
				57.19546127319336
			]
		},
		{
			"name":"CajaA34",
			"rotation":[
				0,
				-0.9890769124031067,
				0,
				0.14740027487277985
			],
			"scale":[
				1.2316508293151855,
				1.2316508293151855,
				1.2316508293151855
			],
			"translation":[
				54.9830322265625,
				2.133859395980835,
				-43.4624137878418
			]
		},
		{
			"name":"CajaS78",
			"rotation":[
				0,
				0.70710688829422,
				0,
				0.7071067094802856
			],
			"scale":[
				1.231650948524475,
				1.2316508293151855,
				1.231650948524475
			],
			"translation":[
				29.041776657104492,
				2.388659954071045,
				68.48646545410156
			]
		},
		{
			"mesh":0,
			"name":"Pipes_Pipes1_0"
		},
		{
			"children":[
				5
			],
			"name":"Pipes"
		},
		{
			"children":[
				6
			],
			"name":"RootNode"
		},
		{
			"children":[
				7
			],
			"name":"355e6a7759ba41898bb1deb6c6ab4629.fbx",
			"rotation":[
				0.70710688829422,
				0,
				0,
				0.7071066498756409
			],
			"scale":[
				0.009999999776482582,
				0.010000000707805157,
				0.010000000707805157
			]
		},
		{
			"children":[
				8
			],
			"name":"Sketchfab_model",
			"rotation":[
				-0.70710688829422,
				0,
				0,
				0.7071066498756409
			],
			"scale":[
				32.07836151123047,
				32.078365325927734,
				32.078365325927734
			]
		}
	],
	"materials":[
		{
			"doubleSided":true,
			"name":"Pipes1.001",
			"normalTexture":{
				"index":0
			},
			"occlusionTexture":{
				"index":1
			},
			"pbrMetallicRoughness":{
				"baseColorTexture":{
					"index":2
				},
				"metallicRoughnessTexture":{
					"index":1
				}
			}
		}
	],
	"meshes":[
		{
			"name":"Pipes_Pipes1_0.001",
			"primitives":[
				{
					"attributes":{
						"POSITION":0,
						"NORMAL":1,
						"TEXCOORD_0":2
					},
					"indices":3,
					"material":0
				}
			]
		}
	],
	"textures":[
		{
			"sampler":0,
			"source":0
		},
		{
			"sampler":0,
			"source":1
		},
		{
			"sampler":0,
			"source":2
		}
	],
	"images":[
		{
			"mimeType":"image/png",
			"name":"Pipes1_normal",
			"uri":"Pipes1_normal.png"
		},
		{
			"mimeType":"image/png",
			"name":"Pipes1_metallicRoughness",
			"uri":"Pipes1_metallicRoughness.png"
		},
		{
			"mimeType":"image/png",
			"name":"Pipes1_baseColor",
			"uri":"Pipes1_baseColor.png"
		}
	],
	"accessors":[
		{
			"bufferView":0,
			"componentType":5126,
			"count":2071,
			"max":[
				38.595985412597656,
				36.61250305175781,
				28.909446716308594
			],
			"min":[
				15.683473587036133,
				-0.17614968121051788,
				-20.6044921875
			],
			"type":"VEC3"
		},
		{
			"bufferView":1,
			"componentType":5126,
			"count":2071,
			"type":"VEC3"
		},
		{
			"bufferView":2,
			"componentType":5126,
			"count":2071,
			"type":"VEC2"
		},
		{
			"bufferView":3,
			"componentType":5123,
			"count":6624,
			"type":"SCALAR"
		}
	],
	"bufferViews":[
		{
			"buffer":0,
			"byteLength":24852,
			"byteOffset":0,
			"target":34962
		},
		{
			"buffer":0,
			"byteLength":24852,
			"byteOffset":24852,
			"target":34962
		},
		{
			"buffer":0,
			"byteLength":16568,
			"byteOffset":49704,
			"target":34962
		},
		{
			"buffer":0,
			"byteLength":13248,
			"byteOffset":66272,
			"target":34963
		}
	],
	"samplers":[
		{
			"magFilter":9729,
			"minFilter":9987
		}
	],
	"buffers":[
		{
			"byteLength":79520,
			"uri":"tuvos.bin"
		}
	]
}
