{
  "accessors": [
    {
      "bufferView": 2,
      "componentType": 5126,
      "count": 12030,
      "max": [
        0.8306650519371033,
        0.8272861242294312,
        -0.19206278026103973
      ],
      "min": [
        -0.8307667970657349,
        -0.8268496990203857,
        -3.666093349456787
      ],
      "type": "VEC3"
    },
    {
      "bufferView": 2,
      "byteOffset": 144360,
      "componentType": 5126,
      "count": 12030,
      "max": [
        0.9999974966049194,
        0.9998841285705566,
        1.0
      ],
      "min": [
        -0.9999969005584717,
        -0.999921441078186,
        -0.9999240636825562
      ],
      "type": "VEC3"
    },
    {
      "bufferView": 1,
      "componentType": 5126,
      "count": 12030,
      "max": [
        1.0025010108947754,
        1.0143026113510132
      ],
      "min": [
        -1.3411070654001378e-07,
        0.0
      ],
      "type": "VEC2"
    },
    {
      "bufferView": 0,
      "componentType": 5125,
      "count": 63600,
      "type": "SCALAR"
    },
    {
      "bufferView": 2,
      "byteOffset": 288720,
      "componentType": 5126,
      "count": 7840,
      "max": [
        0.43821534514427185,
        0.7969515919685364,
        0.42937642335891724
      ],
      "min": [
        -0.4382152855396271,
        -1.2276414632797241,
        -0.4293764531612396
      ],
      "type": "VEC3"
    },
    {
      "bufferView": 2,
      "byteOffset": 382800,
      "componentType": 5126,
      "count": 7840,
      "max": [
        0.9997773170471191,
        0.362967848777771,
        0.9998793601989746
      ],
      "min": [
        -0.9997773170471191,
        -0.9548829197883606,
        -0.9998793601989746
      ],
      "type": "VEC3"
    },
    {
      "bufferView": 1,
      "byteOffset": 96240,
      "componentType": 5126,
      "count": 7840,
      "max": [
        0.972061276435852,
        0.052574727684259415
      ],
      "min": [
        2.292365752509795e-05,
        2.292365752509795e-05
      ],
      "type": "VEC2"
    },
    {
      "bufferView": 0,
      "byteOffset": 254400,
      "componentType": 5125,
      "count": 44016,
      "type": "SCALAR"
    }
  ],
  "asset": {
    "extras": {
      "author": "assetfactory (https://sketchfab.com/assetfactory)",
      "license": "SKETCHFAB Standard (https://sketchfab.com/licenses)",
      "source": "https://sketchfab.com/3d-models/exotic-blue-jellyfish-b51dce1ee4c149dd8667f41896f60c8e",
      "title": "Exotic blue jellyfish"
    },
    "generator": "Sketchfab-16.33.0",
    "version": "2.0"
  },
  "bufferViews": [
    {
      "buffer": 0,
      "byteLength": 430464,
      "name": "floatBufferViews",
      "target": 34963
    },
    {
      "buffer": 0,
      "byteLength": 158960,
      "byteOffset": 430464,
      "byteStride": 8,
      "name": "floatBufferViews",
      "target": 34962
    },
    {
      "buffer": 0,
      "byteLength": 476880,
      "byteOffset": 589424,
      "byteStride": 12,
      "name": "floatBufferViews",
      "target": 34962
    }
  ],
  "buffers": [
    {
      "byteLength": 1066304,
      "uri": "scene.bin"
    }
  ],
  "materials": [
    {
      "alphaMode": "BLEND",
      "doubleSided": true,
      "name": "Jellyfish3",
      "pbrMetallicRoughness": {
        "baseColorFactor": [
          0.0221078,
          0.135796,
          0.8,
          0.3762191705
        ],
        "metallicFactor": 0.0,
        "roughnessFactor": 0.5462261597
      }
    }
  ],
  "meshes": [
    {
      "name": "Cylinder.002_Jellyfish3_0",
      "primitives": [
        {
          "attributes": {
            "NORMAL": 1,
            "POSITION": 0,
            "TEXCOORD_0": 2
          },
          "indices": 3,
          "material": 0,
          "mode": 4
        }
      ]
    },
    {
      "name": "BezierCurve.002_Jellyfish3_0",
      "primitives": [
        {
          "attributes": {
            "NORMAL": 5,
            "POSITION": 4,
            "TEXCOORD_0": 6
          },
          "indices": 7,
          "material": 0,
          "mode": 4
        }
      ]
    }
  ],
  "nodes": [
    {
      "children": [
        1
      ],
      "matrix": [
        1.0,
        0.0,
        0.0,
        0.0,
        0.0,
        2.220446049250313e-16,
        -1.0,
        0.0,
        0.0,
        1.0,
        2.220446049250313e-16,
        0.0,
        0.0,
        0.0,
        0.0,
        1.0
      ],
      "name": "Sketchfab_model"
    },
    {
      "children": [
        2
      ],
      "matrix": [
        0.009999999776482582,
        0.0,
        0.0,
        0.0,
        0.0,
        0.0,
        0.009999999776482582,
        0.0,
        0.0,
        -0.009999999776482582,
        0.0,
        0.0,
        0.0,
        0.0,
        0.0,
        1.0
      ],
      "name": "Jellyfish3.fbx"
    },
    {
      "children": [
        3,
        5
      ],
      "name": "RootNode"
    },
    {
      "children": [
        4
      ],
      "matrix": [
        62.14285659790039,
        0.0,
        0.0,
        0.0,
        0.0,
        -1.0124356416279086e-05,
        -62.142856597899566,
        0.0,
        0.0,
        74.04531097412011,
        -1.2063512369683239e-05,
        0.0,
        0.0,
        123.35416412353516,
        0.0,
        1.0
      ],
      "name": "Cylinder.002"
    },
    {
      "mesh": 0,
      "name": "Cylinder.002_Jellyfish3_0"
    },
    {
      "children": [
        6
      ],
      "matrix": [
        100.0,
        0.0,
        0.0,
        0.0,
        0.0,
        119.15338134765614,
        5.208359717765158e-06,
        0.0,
        0.0,
        -4.371138828673792e-06,
        99.9999999999999,
        0.0,
        0.0,
        -10.780799865722656,
        0.0,
        1.0
      ],
      "name": "BezierCurve.002"
    },
    {
      "mesh": 1,
      "name": "BezierCurve.002_Jellyfish3_0"
    }
  ],
  "scene": 0,
  "scenes": [
    {
      "name": "Sketchfab_Scene",
      "nodes": [
        0
      ]
    }
  ]
}
