{
  "accessors": [
    {
      "bufferView": 2,
      "componentType": 5126,
      "count": 418,
      "max": [
        0.5,
        0.5,
        0.5
      ],
      "min": [
        -0.5,
        -0.5,
        -0.5
      ],
      "type": "VEC3"
    },
    {
      "bufferView": 2,
      "byteOffset": 5016,
      "componentType": 5126,
      "count": 418,
      "max": [
        0.998725175857544,
        0.9995481967926025,
        0.9998936057090759
      ],
      "min": [
        -0.9986839294433594,
        -0.999570906162262,
        -0.9996559023857117
      ],
      "type": "VEC3"
    },
    {
      "bufferView": 1,
      "componentType": 5126,
      "count": 418,
      "max": [
        0.9894359707832336,
        0.9905019998550415
      ],
      "min": [
        0.5138480067253113,
        0.013334980234503746
      ],
      "type": "VEC2"
    },
    {
      "bufferView": 0,
      "componentType": 5125,
      "count": 2304,
      "type": "SCALAR"
    },
    {
      "bufferView": 2,
      "byteOffset": 10032,
      "componentType": 5126,
      "count": 8814,
      "max": [
        0.5,
        0.5,
        0.5
      ],
      "min": [
        -0.5,
        -0.5,
        -0.5
      ],
      "type": "VEC3"
    },
    {
      "bufferView": 2,
      "byteOffset": 115800,
      "componentType": 5126,
      "count": 8814,
      "max": [
        0.9998511075973511,
        0.9997122287750244,
        0.9999905228614807
      ],
      "min": [
        -0.9994199275970459,
        -0.9992622137069702,
        -0.9949439167976379
      ],
      "type": "VEC3"
    },
    {
      "bufferView": 1,
      "byteOffset": 3344,
      "componentType": 5126,
      "count": 8814,
      "max": [
        0.5058799982070923,
        0.9835799932479858
      ],
      "min": [
        0.012296970002353191,
        0.011408980004489422
      ],
      "type": "VEC2"
    },
    {
      "bufferView": 0,
      "byteOffset": 9216,
      "componentType": 5125,
      "count": 47904,
      "type": "SCALAR"
    }
  ],
  "asset": {
    "extras": {
      "author": "ˢᵒᵘʳᶜᵉ ⁴ (https://sketchfab.com/stalker3Donline)",
      "license": "CC-BY-4.0 (http://creativecommons.org/licenses/by/4.0/)",
      "source": "https://sketchfab.com/3d-models/planet-art-3d-model-a8ce19861cbd4aa2b5113d234a10cc9f",
      "title": "Planet Art 3D Model"
    },
    "generator": "Sketchfab-15.85.0",
    "version": "2.0"
  },
  "bufferViews": [
    {
      "buffer": 0,
      "byteLength": 200832,
      "name": "floatBufferViews",
      "target": 34963
    },
    {
      "buffer": 0,
      "byteLength": 73856,
      "byteOffset": 200832,
      "byteStride": 8,
      "name": "floatBufferViews",
      "target": 34962
    },
    {
      "buffer": 0,
      "byteLength": 221568,
      "byteOffset": 274688,
      "byteStride": 12,
      "name": "floatBufferViews",
      "target": 34962
    }
  ],
  "buffers": [
    {
      "byteLength": 496256,
      "uri": "scene.bin"
    }
  ],
  "images": [
    {
      "uri": "textures/Material0-material_baseColor.png"
    }
  ],
  "materials": [
    {
      "doubleSided": true,
      "emissiveFactor": [
        1.0,
        1.0,
        1.0
      ],
      "emissiveTexture": {
        "index": 0
      },
      "name": "Material0-material",
      "pbrMetallicRoughness": {
        "baseColorTexture": {
          "index": 0
        },
        "metallicFactor": 0.2544769660250393,
        "roughnessFactor": 0.5139032804671405
      }
    }
  ],
  "meshes": [
    {
      "name": "Material0-material-material",
      "primitives": [
        {
          "attributes": {
            "NORMAL": 1,
            "POSITION": 0,
            "TEXCOORD_0": 2
          },
          "indices": 3,
          "material": 0,
          "mode": 4
        }
      ]
    },
    {
      "name": "Material0-material-material",
      "primitives": [
        {
          "attributes": {
            "NORMAL": 5,
            "POSITION": 4,
            "TEXCOORD_0": 6
          },
          "indices": 7,
          "material": 0,
          "mode": 4
        }
      ]
    }
  ],
  "nodes": [
    {
      "children": [
        1
      ],
      "matrix": [
        1.0,
        0.0,
        0.0,
        0.0,
        0.0,
        2.220446049250313e-16,
        -1.0,
        0.0,
        0.0,
        1.0,
        2.220446049250313e-16,
        0.0,
        0.0,
        0.0,
        0.0,
        1.0
      ],
      "name": "Sketchfab_model"
    },
    {
      "children": [
        2,
        4
      ],
      "name": "Collada visual scene group"
    },
    {
      "children": [
        3
      ],
      "matrix": [
        -0.03603741,
        -0.03385919,
        -0.0150458,
        0.0,
        0.03532062,
        -0.03770958,
        0.000262675,
        0.0,
        -0.011273,
        -0.0102107,
        0.0499791,
        0.0,
        0.000183105,
        0.000167847,
        -0.000822067,
        1.0
      ],
      "name": "prim0"
    },
    {
      "mesh": 0,
      "name": "Material0-material-material"
    },
    {
      "children": [
        5
      ],
      "matrix": [
        -0.04247222,
        0.08486249,
        0.007757579,
        0.0,
        -0.0828062,
        -0.03900723,
        -0.02664647,
        0.0,
        -0.006124095,
        -0.005547,
        0.0271513,
        0.0,
        0.0,
        0.0,
        0.0,
        1.0
      ],
      "name": "prim1"
    },
    {
      "mesh": 1,
      "name": "Material0-material-material"
    }
  ],
  "samplers": [
    {
      "magFilter": 9729,
      "minFilter": 9987,
      "wrapS": 10497,
      "wrapT": 10497
    }
  ],
  "scene": 0,
  "scenes": [
    {
      "name": "Sketchfab_Scene",
      "nodes": [
        0
      ]
    }
  ],
  "textures": [
    {
      "sampler": 0,
      "source": 0
    }
  ]
}
