{
	"asset":{
		"generator":"Khronos glTF Blender I/O v4.3.47",
		"version":"2.0"
	},
	"extensionsUsed":[
		"KHR_materials_specular"
	],
	"scene":0,
	"scenes":[
		{
			"name":"Scene",
			"nodes":[
				1,
				3,
				4,
				5,
				6,
				7,
				8,
				9,
				10,
				11,
				12,
				13,
				19
			]
		}
	],
	"nodes":[
		{
			"name":"Object_39"
		},
		{
			"children":[
				0
			],
			"name":"cajas:left",
			"translation":[
				-1000.0999755859375,
				1.141592025756836,
				-7.14445686340332
			]
		},
		{
			"name":"Object_48"
		},
		{
			"children":[
				2
			],
			"name":"left",
			"translation":[
				-1000.0999755859375,
				-2.8738067150115967,
				26.75244140625
			]
		},
		{
			"name":"CajaS9",
			"rotation":[
				0,
				-0.70710688829422,
				0,
				0.7071067094802856
			],
			"scale":[
				1.231650948524475,
				1.2316508293151855,
				1.231650948524475
			],
			"translation":[
				-6.7002949714660645,
				1.5517213344573975,
				-47.4288444519043
			]
		},
		{
			"name":"CajaL12",
			"rotation":[
				0,
				-0.7313537001609802,
				0,
				0.6819983720779419
			],
			"scale":[
				1.2316508293151855,
				1.2316508293151855,
				1.2316508293151855
			],
			"translation":[
				0.8198323845863342,
				-0.18657593429088593,
				-52.31155014038086
			]
		},
		{
			"name":"Barril8",
			"rotation":[
				0,
				-0.7758957147598267,
				0,
				0.6308613419532776
			],
			"scale":[
				1.2316508293151855,
				1.2316508293151855,
				1.2316508293151855
			],
			"translation":[
				0.7566750645637512,
				0.04094576835632324,
				-67.11326599121094
			]
		},
		{
			"name":"CajaA29",
			"rotation":[
				0,
				-0.5247055888175964,
				0,
				0.8512837886810303
			],
			"scale":[
				1.2316508293151855,
				1.2316508293151855,
				1.2316508293151855
			],
			"translation":[
				-16.833009719848633,
				-0.41223999857902527,
				-50.62648010253906
			]
		},
		{
			"name":"CajaS53",
			"rotation":[
				0,
				-0.6823313236236572,
				0,
				0.7310430407524109
			],
			"scale":[
				1.2316508293151855,
				1.2316508293151855,
				1.2316508293151855
			],
			"translation":[
				-15.301558494567871,
				1.5134809017181396,
				-71.93414306640625
			]
		},
		{
			"name":"CajaS66",
			"rotation":[
				0,
				-0.70710688829422,
				0,
				0.7071067094802856
			],
			"scale":[
				1.231650948524475,
				1.2316508293151855,
				1.231650948524475
			],
			"translation":[
				-23.55760383605957,
				-0.1311531811952591,
				-68.22026824951172
			]
		},
		{
			"name":"CajaS52",
			"rotation":[
				0,
				-0.697068989276886,
				0,
				0.717004120349884
			],
			"scale":[
				1.231650948524475,
				1.2316508293151855,
				1.231650948524475
			],
			"translation":[
				-8.649909973144531,
				-0.1311531811952591,
				-55.82155990600586
			]
		},
		{
			"name":"CajaS68",
			"rotation":[
				0,
				-0.7510144710540771,
				0,
				0.6602857708930969
			],
			"scale":[
				1.231650710105896,
				1.2316508293151855,
				1.231650710105896
			],
			"translation":[
				-7.315512657165527,
				21.484872817993164,
				-63.6437873840332
			]
		},
		{
			"name":"CajaL28",
			"rotation":[
				0,
				-0.7777664661407471,
				0,
				0.6285533308982849
			],
			"scale":[
				1.231650948524475,
				1.2316508293151855,
				1.231650948524475
			],
			"translation":[
				47.829673767089844,
				-0.1799212098121643,
				-53.219520568847656
			]
		},
		{
			"name":"CajaS80",
			"rotation":[
				0,
				-0.70710688829422,
				0,
				0.7071067094802856
			],
			"scale":[
				1.231650948524475,
				1.2316508293151855,
				1.231650948524475
			],
			"translation":[
				12.999361038208008,
				2.3871123790740967,
				-58.390625
			]
		},
		{
			"mesh":0,
			"name":"Barril11_Barril1_0"
		},
		{
			"children":[
				14
			],
			"name":"Barril11",
			"rotation":[
				0,
				0.22279150784015656,
				0,
				0.9748662114143372
			],
			"scale":[
				1.231650710105896,
				1.2316508293151855,
				1.231650710105896
			],
			"translation":[
				-5.807446002960205,
				0.04094576835632324,
				35.59550857543945
			]
		},
		{
			"children":[
				15
			],
			"name":"lot_of_boxes4"
		},
		{
			"children":[
				16
			],
			"name":"RootNode"
		},
		{
			"children":[
				17
			],
			"name":"355e6a7759ba41898bb1deb6c6ab4629.fbx",
			"rotation":[
				0.70710688829422,
				0,
				0,
				0.7071066498756409
			],
			"scale":[
				0.009999999776482582,
				0.010000000707805157,
				0.010000000707805157
			]
		},
		{
			"children":[
				18
			],
			"name":"Sketchfab_model",
			"rotation":[
				-0.70710688829422,
				0,
				0,
				0.7071066498756409
			],
			"scale":[
				32.07836151123047,
				32.078365325927734,
				32.078365325927734
			]
		}
	],
	"materials":[
		{
			"doubleSided":true,
			"extensions":{
				"KHR_materials_specular":{
					"specularFactor":0
				}
			},
			"name":"Barril1.001",
			"occlusionTexture":{
				"index":0
			},
			"pbrMetallicRoughness":{
				"baseColorTexture":{
					"index":1
				},
				"metallicRoughnessTexture":{
					"index":0
				},
				"roughnessFactor":0.985907793045044
			}
		}
	],
	"meshes":[
		{
			"name":"Barril11_Barril1_0.001",
			"primitives":[
				{
					"attributes":{
						"POSITION":0,
						"NORMAL":1,
						"TEXCOORD_0":2
					},
					"indices":3,
					"material":0
				}
			]
		}
	],
	"textures":[
		{
			"sampler":0,
			"source":0
		},
		{
			"sampler":0,
			"source":1
		}
	],
	"images":[
		{
			"mimeType":"image/png",
			"name":"Barril1_metallicRoughness",
			"uri":"Barril1_metallicRoughness.png"
		},
		{
			"mimeType":"image/png",
			"name":"Barril1_baseColor",
			"uri":"Barril1_baseColor.png"
		}
	],
	"accessors":[
		{
			"bufferView":0,
			"componentType":5126,
			"count":705,
			"max":[
				41.98235321044922,
				2.8198328018188477,
				-2.4712257385253906
			],
			"min":[
				39.851043701171875,
				-0.1818375289440155,
				-4.602535247802734
			],
			"type":"VEC3"
		},
		{
			"bufferView":1,
			"componentType":5126,
			"count":705,
			"type":"VEC3"
		},
		{
			"bufferView":2,
			"componentType":5126,
			"count":705,
			"type":"VEC2"
		},
		{
			"bufferView":3,
			"componentType":5123,
			"count":2802,
			"type":"SCALAR"
		}
	],
	"bufferViews":[
		{
			"buffer":0,
			"byteLength":8460,
			"byteOffset":0,
			"target":34962
		},
		{
			"buffer":0,
			"byteLength":8460,
			"byteOffset":8460,
			"target":34962
		},
		{
			"buffer":0,
			"byteLength":5640,
			"byteOffset":16920,
			"target":34962
		},
		{
			"buffer":0,
			"byteLength":5604,
			"byteOffset":22560,
			"target":34963
		}
	],
	"samplers":[
		{
			"magFilter":9729,
			"minFilter":9987
		}
	],
	"buffers":[
		{
			"byteLength":28164,
			"uri":"bardir.bin"
		}
	]
}
