{"scene":0,"asset":{"generator":"ImageToStl.com","version":"2.0"},"scenes":[{"name":"Scene","nodes":[0]}],"nodes":[{"name":"Node0","children":[1,2,3,4,5,6,7]},{"name":"Node1","mesh":0},{"name":"Node2","mesh":1},{"name":"Node3","mesh":2},{"name":"Node4","mesh":3},{"name":"Node5","mesh":4},{"name":"Node6","mesh":5},{"name":"Node7","mesh":6}],"materials":[{"name":"#FFE500FF","pbrMetallicRoughness":{"baseColorFactor":[1.0,0.8980392,0.0,1.0],"metallicFactor":0.0,"roughnessFactor":1.0},"doubleSided":true},{"name":"#931B81FF","pbrMetallicRoughness":{"baseColorFactor":[0.5764706,0.105882354,0.5058824,1.0],"metallicFactor":0.0,"roughnessFactor":1.0},"doubleSided":true},{"name":"#009BA6FF","pbrMetallicRoughness":{"baseColorFactor":[0.0,0.60784316,0.6509804,1.0],"metallicFactor":0.0,"roughnessFactor":1.0},"doubleSided":true},{"name":"#FFF7BF40","pbrMetallicRoughness":{"baseColorFactor":[1.0,0.96862745,0.7490196,0.2509804],"metallicFactor":0.0,"roughnessFactor":1.0},"alphaMode":"BLEND","doubleSided":true},{"name":"#BFE7E740","pbrMetallicRoughness":{"baseColorFactor":[0.7490196,0.90588236,0.90588236,0.2509804],"metallicFactor":0.0,"roughnessFactor":1.0},"alphaMode":"BLEND","doubleSided":true},{"name":"#E3C7DF40","pbrMetallicRoughness":{"baseColorFactor":[0.8901961,0.78039217,0.8745098,0.2509804],"metallicFactor":0.0,"roughnessFactor":1.0},"alphaMode":"BLEND","doubleSided":true},{"name":"#FFF18080","pbrMetallicRoughness":{"baseColorFactor":[1.0,0.94509804,0.5019608,0.5019608],"metallicFactor":0.0,"roughnessFactor":1.0},"alphaMode":"BLEND","doubleSided":true},{"name":"#AE529FC0","pbrMetallicRoughness":{"baseColorFactor":[0.68235296,0.32156864,0.62352943,0.7529412],"metallicFactor":0.0,"roughnessFactor":1.0},"alphaMode":"BLEND","doubleSided":true},{"name":"#FFEB3EC0","pbrMetallicRoughness":{"baseColorFactor":[1.0,0.92156863,0.24313726,0.7529412],"metallicFactor":0.0,"roughnessFactor":1.0},"alphaMode":"BLEND","doubleSided":true},{"name":"#FFEF60A0","pbrMetallicRoughness":{"baseColorFactor":[1.0,0.9372549,0.3764706,0.627451],"metallicFactor":0.0,"roughnessFactor":1.0},"alphaMode":"BLEND","doubleSided":true},{"name":"#FFF49F60","pbrMetallicRoughness":{"baseColorFactor":[1.0,0.95686275,0.62352943,0.3764706],"metallicFactor":0.0,"roughnessFactor":1.0},"alphaMode":"BLEND","doubleSided":true},{"name":"#FEE71FE0","pbrMetallicRoughness":{"baseColorFactor":[0.99607843,0.90588236,0.12156863,0.8784314],"metallicFactor":0.0,"roughnessFactor":1.0},"alphaMode":"BLEND","doubleSided":true},{"name":"#FFE500DA","pbrMetallicRoughness":{"baseColorFactor":[1.0,0.8980392,0.0,0.85490197],"metallicFactor":0.0,"roughnessFactor":1.0},"alphaMode":"BLEND","doubleSided":true}],"meshes":[{"name":"Mesh0","primitives":[{"indices":2,"material":0,"attributes":{"POSITION":0,"NORMAL":1}}]},{"name":"Mesh0","primitives":[{"indices":5,"material":1,"attributes":{"POSITION":3,"NORMAL":4}}]},{"name":"Mesh0","primitives":[{"indices":8,"material":1,"attributes":{"POSITION":6,"NORMAL":7}}]},{"name":"Mesh0","primitives":[{"indices":11,"material":1,"attributes":{"POSITION":9,"NORMAL":10}}]},{"name":"Mesh0","primitives":[{"indices":14,"material":1,"attributes":{"POSITION":12,"NORMAL":13}}]},{"name":"Mesh0","primitives":[{"indices":17,"material":2,"attributes":{"POSITION":15,"NORMAL":16}}]},{"name":"Mesh0","primitives":[{"indices":20,"material":2,"attributes":{"POSITION":18,"NORMAL":19}}]}],"accessors":[{"bufferView":0,"componentType":5126,"count":7014,"type":"VEC3","min":[-47.64193,-18.562292,-5.0],"max":[13.085958,39.002453,5.0]},{"bufferView":1,"componentType":5126,"count":7014,"type":"VEC3"},{"bufferView":2,"componentType":5123,"count":14028,"type":"SCALAR"},{"bufferView":3,"componentType":5126,"count":3900,"type":"VEC3","min":[7.860362,-27.903048,-5.0],"max":[44.656754,29.561537,5.0]},{"bufferView":4,"componentType":5126,"count":3900,"type":"VEC3"},{"bufferView":5,"componentType":5123,"count":7788,"type":"SCALAR"},{"bufferView":6,"componentType":5126,"count":1578,"type":"VEC3","min":[-15.983786,-14.708091,-5.0],"max":[-1.784707,15.497668,5.0]},{"bufferView":7,"componentType":5126,"count":1578,"type":"VEC3"},{"bufferView":8,"componentType":5123,"count":3144,"type":"SCALAR"},{"bufferView":9,"componentType":5126,"count":1080,"type":"VEC3","min":[-10.338767,-27.666006,-5.0],"max":[9.085737,-13.545645,5.0]},{"bufferView":10,"componentType":5126,"count":1080,"type":"VEC3"},{"bufferView":11,"componentType":5123,"count":2148,"type":"SCALAR"},{"bufferView":12,"componentType":5126,"count":348,"type":"VEC3","min":[-8.982485,18.524384,-5.0],"max":[-0.6497365,24.336723,5.0]},{"bufferView":13,"componentType":5126,"count":348,"type":"VEC3"},{"bufferView":14,"componentType":5123,"count":684,"type":"SCALAR"},{"bufferView":15,"componentType":5126,"count":4638,"type":"VEC3","min":[-37.129326,-39.022152,-5.0],"max":[23.603485,12.868147,5.0]},{"bufferView":16,"componentType":5126,"count":4638,"type":"VEC3"},{"bufferView":17,"componentType":5123,"count":9264,"type":"SCALAR"},{"bufferView":18,"componentType":5126,"count":2316,"type":"VEC3","min":[-33.889214,-12.82319,-5.0],"max":[0.29012698,18.697897,5.0]},{"bufferView":19,"componentType":5126,"count":2316,"type":"VEC3"},{"bufferView":20,"componentType":5123,"count":4620,"type":"SCALAR"}],"bufferViews":[{"target":34962,"buffer":0,"byteLength":84168,"byteOffset":0},{"target":34962,"buffer":0,"byteLength":84168,"byteOffset":84168},{"target":34963,"buffer":0,"byteLength":28056,"byteOffset":168336},{"target":34962,"buffer":0,"byteLength":46800,"byteOffset":196392},{"target":34962,"buffer":0,"byteLength":46800,"byteOffset":243192},{"target":34963,"buffer":0,"byteLength":15576,"byteOffset":289992},{"target":34962,"buffer":0,"byteLength":18936,"byteOffset":305568},{"target":34962,"buffer":0,"byteLength":18936,"byteOffset":324504},{"target":34963,"buffer":0,"byteLength":6288,"byteOffset":343440},{"target":34962,"buffer":0,"byteLength":12960,"byteOffset":349728},{"target":34962,"buffer":0,"byteLength":12960,"byteOffset":362688},{"target":34963,"buffer":0,"byteLength":4296,"byteOffset":375648},{"target":34962,"buffer":0,"byteLength":4176,"byteOffset":379944},{"target":34962,"buffer":0,"byteLength":4176,"byteOffset":384120},{"target":34963,"buffer":0,"byteLength":1368,"byteOffset":388296},{"target":34962,"buffer":0,"byteLength":55656,"byteOffset":389664},{"target":34962,"buffer":0,"byteLength":55656,"byteOffset":445320},{"target":34963,"buffer":0,"byteLength":18528,"byteOffset":500976},{"target":34962,"buffer":0,"byteLength":27792,"byteOffset":519504},{"target":34962,"buffer":0,"byteLength":27792,"byteOffset":547296},{"target":34963,"buffer":0,"byteLength":9240,"byteOffset":575088}],"buffers":[{"byteLength":584328,"uri":"data:application/octet-stream;base64,"}]}