{
	"asset":{
		"generator":"Khronos glTF Blender I/O v4.3.47",
		"version":"2.0"
	},
	"scene":0,
	"scenes":[
		{
			"name":"Scene",
			"nodes":[
				7
			]
		}
	],
	"nodes":[
		{
			"mesh":0,
			"name":"Node1"
		},
		{
			"mesh":1,
			"name":"Node2"
		},
		{
			"mesh":2,
			"name":"Node3"
		},
		{
			"mesh":3,
			"name":"Node4"
		},
		{
			"mesh":4,
			"name":"Node5"
		},
		{
			"mesh":5,
			"name":"Node6"
		},
		{
			"mesh":6,
			"name":"Node7"
		},
		{
			"children":[
				0,
				1,
				2,
				3,
				4,
				5,
				6
			],
			"name":"Node0",
			"rotation":[
				0.7101999521255493,
				0,
				0,
				0.7040001153945923
			],
			"translation":[
				0,
				0.018339872360229492,
				-0.03328299522399902
			]
		}
	],
	"materials":[
		{
			"doubleSided":true,
			"name":"#FFE500FF",
			"pbrMetallicRoughness":{
				"baseColorFactor":[
					1,
					0.8980392217636108,
					0,
					1
				],
				"metallicFactor":0
			}
		},
		{
			"doubleSided":true,
			"name":"#931B81FF",
			"pbrMetallicRoughness":{
				"baseColorFactor":[
					0.5764706134796143,
					0.10588235408067703,
					0.5058823823928833,
					1
				],
				"metallicFactor":0
			}
		},
		{
			"doubleSided":true,
			"name":"#009BA6FF",
			"pbrMetallicRoughness":{
				"baseColorFactor":[
					0,
					0.6078431606292725,
					0.6509804129600525,
					1
				],
				"metallicFactor":0
			}
		}
	],
	"meshes":[
		{
			"name":"Mesh0",
			"primitives":[
				{
					"attributes":{
						"POSITION":0,
						"NORMAL":1
					},
					"indices":2,
					"material":0
				}
			]
		},
		{
			"name":"Mesh0.001",
			"primitives":[
				{
					"attributes":{
						"POSITION":3,
						"NORMAL":4
					},
					"indices":5,
					"material":1
				}
			]
		},
		{
			"name":"Mesh0.002",
			"primitives":[
				{
					"attributes":{
						"POSITION":6,
						"NORMAL":7
					},
					"indices":8,
					"material":1
				}
			]
		},
		{
			"name":"Mesh0.003",
			"primitives":[
				{
					"attributes":{
						"POSITION":9,
						"NORMAL":10
					},
					"indices":11,
					"material":1
				}
			]
		},
		{
			"name":"Mesh0.004",
			"primitives":[
				{
					"attributes":{
						"POSITION":12,
						"NORMAL":13
					},
					"indices":14,
					"material":1
				}
			]
		},
		{
			"name":"Mesh0.005",
			"primitives":[
				{
					"attributes":{
						"POSITION":15,
						"NORMAL":16
					},
					"indices":17,
					"material":2
				}
			]
		},
		{
			"name":"Mesh0.006",
			"primitives":[
				{
					"attributes":{
						"POSITION":18,
						"NORMAL":19
					},
					"indices":20,
					"material":2
				}
			]
		}
	],
	"accessors":[
		{
			"bufferView":0,
			"componentType":5126,
			"count":7014,
			"max":[
				13.085957527160645,
				5,
				18.562292098999023
			],
			"min":[
				-47.641929626464844,
				-5,
				-39.0024528503418
			],
			"type":"VEC3"
		},
		{
			"bufferView":1,
			"componentType":5126,
			"count":7014,
			"type":"VEC3"
		},
		{
			"bufferView":2,
			"componentType":5123,
			"count":14028,
			"type":"SCALAR"
		},
		{
			"bufferView":3,
			"componentType":5126,
			"count":3900,
			"max":[
				44.65675354003906,
				5,
				27.903047561645508
			],
			"min":[
				7.8603620529174805,
				-5,
				-29.56153678894043
			],
			"type":"VEC3"
		},
		{
			"bufferView":4,
			"componentType":5126,
			"count":3900,
			"type":"VEC3"
		},
		{
			"bufferView":5,
			"componentType":5123,
			"count":7788,
			"type":"SCALAR"
		},
		{
			"bufferView":6,
			"componentType":5126,
			"count":1578,
			"max":[
				-1.784706950187683,
				5,
				14.708090782165527
			],
			"min":[
				-15.983785629272461,
				-5,
				-15.497668266296387
			],
			"type":"VEC3"
		},
		{
			"bufferView":7,
			"componentType":5126,
			"count":1578,
			"type":"VEC3"
		},
		{
			"bufferView":8,
			"componentType":5123,
			"count":3144,
			"type":"SCALAR"
		},
		{
			"bufferView":9,
			"componentType":5126,
			"count":1080,
			"max":[
				9.085737228393555,
				5,
				27.666006088256836
			],
			"min":[
				-10.338767051696777,
				-5,
				13.545644760131836
			],
			"type":"VEC3"
		},
		{
			"bufferView":10,
			"componentType":5126,
			"count":1080,
			"type":"VEC3"
		},
		{
			"bufferView":11,
			"componentType":5123,
			"count":2148,
			"type":"SCALAR"
		},
		{
			"bufferView":12,
			"componentType":5126,
			"count":348,
			"max":[
				-0.6497365236282349,
				5,
				-18.524383544921875
			],
			"min":[
				-8.982484817504883,
				-5,
				-24.33672332763672
			],
			"type":"VEC3"
		},
		{
			"bufferView":13,
			"componentType":5126,
			"count":348,
			"type":"VEC3"
		},
		{
			"bufferView":14,
			"componentType":5123,
			"count":684,
			"type":"SCALAR"
		},
		{
			"bufferView":15,
			"componentType":5126,
			"count":4638,
			"max":[
				23.603485107421875,
				5,
				39.022151947021484
			],
			"min":[
				-37.12932586669922,
				-5,
				-12.868146896362305
			],
			"type":"VEC3"
		},
		{
			"bufferView":16,
			"componentType":5126,
			"count":4638,
			"type":"VEC3"
		},
		{
			"bufferView":17,
			"componentType":5123,
			"count":9264,
			"type":"SCALAR"
		},
		{
			"bufferView":18,
			"componentType":5126,
			"count":2316,
			"max":[
				0.2901269793510437,
				5,
				12.823189735412598
			],
			"min":[
				-33.88921356201172,
				-5,
				-18.69789695739746
			],
			"type":"VEC3"
		},
		{
			"bufferView":19,
			"componentType":5126,
			"count":2316,
			"type":"VEC3"
		},
		{
			"bufferView":20,
			"componentType":5123,
			"count":4620,
			"type":"SCALAR"
		}
	],
	"bufferViews":[
		{
			"buffer":0,
			"byteLength":84168,
			"byteOffset":0,
			"target":34962
		},
		{
			"buffer":0,
			"byteLength":84168,
			"byteOffset":84168,
			"target":34962
		},
		{
			"buffer":0,
			"byteLength":28056,
			"byteOffset":168336,
			"target":34963
		},
		{
			"buffer":0,
			"byteLength":46800,
			"byteOffset":196392,
			"target":34962
		},
		{
			"buffer":0,
			"byteLength":46800,
			"byteOffset":243192,
			"target":34962
		},
		{
			"buffer":0,
			"byteLength":15576,
			"byteOffset":289992,
			"target":34963
		},
		{
			"buffer":0,
			"byteLength":18936,
			"byteOffset":305568,
			"target":34962
		},
		{
			"buffer":0,
			"byteLength":18936,
			"byteOffset":324504,
			"target":34962
		},
		{
			"buffer":0,
			"byteLength":6288,
			"byteOffset":343440,
			"target":34963
		},
		{
			"buffer":0,
			"byteLength":12960,
			"byteOffset":349728,
			"target":34962
		},
		{
			"buffer":0,
			"byteLength":12960,
			"byteOffset":362688,
			"target":34962
		},
		{
			"buffer":0,
			"byteLength":4296,
			"byteOffset":375648,
			"target":34963
		},
		{
			"buffer":0,
			"byteLength":4176,
			"byteOffset":379944,
			"target":34962
		},
		{
			"buffer":0,
			"byteLength":4176,
			"byteOffset":384120,
			"target":34962
		},
		{
			"buffer":0,
			"byteLength":1368,
			"byteOffset":388296,
			"target":34963
		},
		{
			"buffer":0,
			"byteLength":55656,
			"byteOffset":389664,
			"target":34962
		},
		{
			"buffer":0,
			"byteLength":55656,
			"byteOffset":445320,
			"target":34962
		},
		{
			"buffer":0,
			"byteLength":18528,
			"byteOffset":500976,
			"target":34963
		},
		{
			"buffer":0,
			"byteLength":27792,
			"byteOffset":519504,
			"target":34962
		},
		{
			"buffer":0,
			"byteLength":27792,
			"byteOffset":547296,
			"target":34962
		},
		{
			"buffer":0,
			"byteLength":9240,
			"byteOffset":575088,
			"target":34963
		}
	],
	"buffers":[
		{
			"byteLength":584328,
			"uri":"logo3D.bin"
		}
	]
}
