{
  "accessors": [
    {
      "bufferView": 3,
      "componentType": 5126,
      "count": 1219,
      "max": [
        3.025223731994629,
        0.07436774671077728,
        0.012494875118136406
      ],
      "min": [
        2.974776029586792,
        0.00043396465480327606,
        -0.012494875118136406
      ],
      "type": "VEC3"
    },
    {
      "bufferView": 3,
      "byteOffset": 14628,
      "componentType": 5126,
      "count": 1219,
      "max": [
        1.0,
        1.0,
        1.0
      ],
      "min": [
        -1.0,
        -1.0,
        -1.0
      ],
      "type": "VEC3"
    },
    {
      "bufferView": 2,
      "componentType": 5126,
      "count": 1219,
      "max": [
        0.5604007244110107,
        0.6031060218811035
      ],
      "min": [
        0.43885865807533264,
        0.4362347722053528
      ],
      "type": "VEC2"
    },
    {
      "bufferView": 1,
      "componentType": 5125,
      "count": 2202,
      "type": "SCALAR"
    },
    {
      "bufferView": 5,
      "componentType": 5126,
      "count": 4,
      "max": [
        100.0,
        0.0,
        2.384185791015625e-07,
        0.0,
        0.0,
        100.0,
        0.0,
        0.0,
        0.0,
        0.0,
        100.0,
        0.0,
        0.0,
        0.0005347386468201876,
        0.0,
        1.0
      ],
      "min": [
        1.0,
        0.0,
        0.0,
        0.0,
        0.0,
        1.0,
        0.0,
        0.0,
        -2.384185791015625e-07,
        0.0,
        1.0,
        0.0,
        -3.0117459297180176,
        -0.04700889438390732,
        -7.18264061561058e-07,
        1.0
      ],
      "type": "MAT4"
    },
    {
      "bufferView": 0,
      "componentType": 5123,
      "count": 1219,
      "type": "VEC4"
    },
    {
      "bufferView": 4,
      "componentType": 5126,
      "count": 1219,
      "max": [
        1.0,
        0.5,
        0.0,
        0.0
      ],
      "min": [
        0.5,
        0.0,
        0.0,
        0.0
      ],
      "type": "VEC4"
    },
    {
      "bufferView": 6,
      "componentType": 5126,
      "count": 83,
      "max": [
        2.3333332538604736
      ],
      "min": [
        0.0
      ],
      "type": "SCALAR"
    },
    {
      "bufferView": 7,
      "componentType": 5126,
      "count": 83,
      "max": [
        0.011746007017791271,
        0.051276952028274536,
        2.078845290354181e-10
      ],
      "min": [
        0.011745929718017578,
        0.04754363372921944,
        -9.080395102500916e-09
      ],
      "type": "VEC3"
    },
    {
      "bufferView": 6,
      "byteOffset": 332,
      "componentType": 5126,
      "count": 6,
      "max": [
        2.3333332538604736
      ],
      "min": [
        0.0
      ],
      "type": "SCALAR"
    },
    {
      "bufferView": 7,
      "byteOffset": 996,
      "componentType": 5126,
      "count": 6,
      "max": [
        1.000000238418579,
        1.0,
        1.000000238418579
      ],
      "min": [
        1.0,
        1.0,
        1.0
      ],
      "type": "VEC3"
    },
    {
      "bufferView": 6,
      "byteOffset": 356,
      "componentType": 5126,
      "count": 83,
      "max": [
        2.3333332538604736
      ],
      "min": [
        0.0
      ],
      "type": "SCALAR"
    },
    {
      "bufferView": 8,
      "componentType": 5126,
      "count": 83,
      "max": [
        5.762829324851282e-09,
        0.9999533295631409,
        2.3342359156686143e-08,
        1.0
      ],
      "min": [
        -1.9311421795009664e-08,
        1.1920928955078125e-07,
        -4.549122856190024e-09,
        -0.009661798365414143
      ],
      "type": "VEC4"
    },
    {
      "bufferView": 6,
      "byteOffset": 688,
      "componentType": 5126,
      "count": 24,
      "max": [
        2.3333332538604736
      ],
      "min": [
        0.0
      ],
      "type": "SCALAR"
    },
    {
      "bufferView": 7,
      "byteOffset": 1068,
      "componentType": 5126,
      "count": 24,
      "max": [
        3.0,
        4.1359030627651384e-25,
        0.010792362503707409
      ],
      "min": [
        3.0,
        -1.2924697071141057e-26,
        -0.0005347386468201876
      ],
      "type": "VEC3"
    },
    {
      "bufferView": 6,
      "byteOffset": 784,
      "componentType": 5126,
      "count": 113,
      "max": [
        2.3333332538604736
      ],
      "min": [
        0.0
      ],
      "type": "SCALAR"
    },
    {
      "bufferView": 8,
      "byteOffset": 1328,
      "componentType": 5126,
      "count": 113,
      "max": [
        0.7071068286895752,
        0.12280657142400742,
        0.08251477032899857,
        0.7216296195983887
      ],
      "min": [
        0.6911932826042175,
        -0.08251473307609558,
        -0.12280654162168503,
        0.6963608860969543
      ],
      "type": "VEC4"
    }
  ],
  "animations": [
    {
      "channels": [
        {
          "sampler": 0,
          "target": {
            "node": 8,
            "path": "translation"
          }
        },
        {
          "sampler": 1,
          "target": {
            "node": 8,
            "path": "scale"
          }
        },
        {
          "sampler": 2,
          "target": {
            "node": 8,
            "path": "rotation"
          }
        },
        {
          "sampler": 3,
          "target": {
            "node": 7,
            "path": "translation"
          }
        },
        {
          "sampler": 4,
          "target": {
            "node": 7,
            "path": "rotation"
          }
        }
      ],
      "name": "CadeadoVelho_Armature|Giovanna_CadeadoAbrindo",
      "samplers": [
        {
          "input": 7,
          "interpolation": "LINEAR",
          "output": 8
        },
        {
          "input": 9,
          "interpolation": "LINEAR",
          "output": 10
        },
        {
          "input": 11,
          "interpolation": "LINEAR",
          "output": 12
        },
        {
          "input": 13,
          "interpolation": "LINEAR",
          "output": 14
        },
        {
          "input": 15,
          "interpolation": "LINEAR",
          "output": 16
        }
      ]
    }
  ],
  "asset": {
    "extras": {
      "author": "Giovanna Brescia (https://sketchfab.com/giovannabrescia)",
      "license": "CC-BY-4.0 (http://creativecommons.org/licenses/by/4.0/)",
      "source": "https://sketchfab.com/3d-models/cadeado-padlock-11177bb8973646aeb02ff1dbb1b9693f",
      "title": "Cadeado - Padlock"
    },
    "generator": "Sketchfab-16.16.0",
    "version": "2.0"
  },
  "bufferViews": [
    {
      "buffer": 0,
      "byteLength": 9752,
      "byteStride": 8,
      "name": "shortBufferViews",
      "target": 34962
    },
    {
      "buffer": 0,
      "byteLength": 8808,
      "byteOffset": 9752,
      "name": "floatBufferViews",
      "target": 34963
    },
    {
      "buffer": 0,
      "byteLength": 9752,
      "byteOffset": 18560,
      "byteStride": 8,
      "name": "floatBufferViews",
      "target": 34962
    },
    {
      "buffer": 0,
      "byteLength": 29256,
      "byteOffset": 28312,
      "byteStride": 12,
      "name": "floatBufferViews",
      "target": 34962
    },
    {
      "buffer": 0,
      "byteLength": 19504,
      "byteOffset": 57568,
      "byteStride": 16,
      "name": "floatBufferViews",
      "target": 34962
    },
    {
      "buffer": 0,
      "byteLength": 256,
      "byteOffset": 77072,
      "name": "floatBufferViews"
    },
    {
      "buffer": 0,
      "byteLength": 1236,
      "byteOffset": 77328,
      "name": "floatBufferViews"
    },
    {
      "buffer": 0,
      "byteLength": 1356,
      "byteOffset": 78564,
      "byteStride": 12,
      "name": "floatBufferViews"
    },
    {
      "buffer": 0,
      "byteLength": 3136,
      "byteOffset": 79920,
      "byteStride": 16,
      "name": "floatBufferViews"
    }
  ],
  "buffers": [
    {
      "byteLength": 83056,
      "uri": "scene.bin"
    }
  ],
  "images": [
    {
      "uri": "textures/material_baseColor.png"
    }
  ],
  "materials": [
    {
      "doubleSided": true,
      "name": "material",
      "pbrMetallicRoughness": {
        "baseColorTexture": {
          "index": 0
        },
        "metallicFactor": 0.0,
        "roughnessFactor": 0.8211145618000169
      }
    }
  ],
  "meshes": [
    {
      "name": "CadeadoVelho_Cor_0",
      "primitives": [
        {
          "attributes": {
            "JOINTS_0": 5,
            "NORMAL": 1,
            "POSITION": 0,
            "TEXCOORD_0": 2,
            "WEIGHTS_0": 6
          },
          "indices": 3,
          "material": 0,
          "mode": 4
        }
      ]
    }
  ],
  "nodes": [
    {
      "children": [
        1
      ],
      "matrix": [
        1.0,
        0.0,
        0.0,
        0.0,
        0.0,
        2.220446049250313e-16,
        -1.0,
        0.0,
        0.0,
        1.0,
        2.220446049250313e-16,
        0.0,
        0.0,
        0.0,
        0.0,
        1.0
      ],
      "name": "Sketchfab_model"
    },
    {
      "children": [
        2
      ],
      "matrix": [
        0.009999999776482582,
        0.0,
        0.0,
        0.0,
        0.0,
        0.0,
        0.009999999776482582,
        0.0,
        0.0,
        -0.009999999776482582,
        0.0,
        0.0,
        0.0,
        0.0,
        0.0,
        1.0
      ],
      "name": "Cadeado.fbx"
    },
    {
      "children": [
        3
      ],
      "name": "Object_2"
    },
    {
      "children": [
        4,
        12
      ],
      "name": "RootNode"
    },
    {
      "children": [
        5
      ],
      "name": "CadeadoVelho_Armature",
      "rotation": [
        -0.7071068286895752,
        0.0,
        0.0,
        0.7071067094802856
      ],
      "scale": [
        100.0,
        100.0,
        100.0
      ]
    },
    {
      "children": [
        6,
        11,
        10
      ],
      "name": "Object_5"
    },
    {
      "children": [
        7
      ],
      "name": "_rootJoint"
    },
    {
      "children": [
        8
      ],
      "name": "Tronco_00",
      "rotation": [
        0.7071068286895752,
        0.0,
        0.0,
        0.7071067094802856
      ],
      "translation": [
        3.0,
        -1.2924697071141057e-26,
        -0.0005347386468201876
      ]
    },
    {
      "children": [
        9
      ],
      "name": "Tranca_01",
      "rotation": [
        0.0,
        1.1920928955078125e-07,
        0.0,
        1.0
      ],
      "translation": [
        0.011745929718017578,
        0.04754363372921944,
        2.078845290354181e-10
      ]
    },
    {
      "name": "Tranca_end_02",
      "rotation": [
        0.0,
        -1.3234889800848443e-23,
        0.0,
        1.0
      ],
      "translation": [
        0.0,
        0.027145296335220337,
        0.0
      ]
    },
    {
      "matrix": [
        100.0,
        0.0,
        0.0,
        0.0,
        0.0,
        6.123233995736766e-15,
        -100.0,
        0.0,
        0.0,
        100.0,
        6.123233995736766e-15,
        0.0,
        0.0,
        9.313225746154785e-10,
        0.0,
        1.0
      ],
      "name": "Object_10"
    },
    {
      "mesh": 0,
      "name": "Object_11",
      "skin": 0
    },
    {
      "name": "CadeadoVelho",
      "rotation": [
        -0.7071068286895752,
        0.0,
        0.0,
        0.7071067094802856
      ],
      "scale": [
        100.0,
        100.0,
        100.0
      ]
    }
  ],
  "samplers": [
    {
      "magFilter": 9729,
      "minFilter": 9987,
      "wrapS": 10497,
      "wrapT": 10497
    }
  ],
  "scene": 0,
  "scenes": [
    {
      "name": "Sketchfab_Scene",
      "nodes": [
        0
      ]
    }
  ],
  "skins": [
    {
      "inverseBindMatrices": 4,
      "joints": [
        6,
        7,
        8,
        9
      ],
      "skeleton": 6
    }
  ],
  "textures": [
    {
      "sampler": 0,
      "source": 0
    }
  ]
}
