{
	"asset":{
		"generator":"Khronos glTF Blender I/O v4.3.47",
		"version":"2.0"
	},
	"scene":0,
	"scenes":[
		{
			"name":"Scene",
			"nodes":[
				0,
				2,
				4,
				5,
				6,
				7,
				8,
				9,
				10,
				11,
				12,
				13,
				14,
				15,
				16,
				17,
				23
			]
		}
	],
	"nodes":[
		{
			"name":"Viga3",
			"scale":[
				1.0929218530654907,
				1.0929218530654907,
				1.0929218530654907
			],
			"translation":[
				0,
				-0.2701879143714905,
				67.37169647216797
			]
		},
		{
			"name":"Object_39"
		},
		{
			"children":[
				1
			],
			"name":"cajas:left",
			"translation":[
				-1000.0999755859375,
				1.141592025756836,
				-7.14445686340332
			]
		},
		{
			"name":"Object_48"
		},
		{
			"children":[
				3
			],
			"name":"left",
			"translation":[
				-1000.0999755859375,
				-2.8738067150115967,
				26.75244140625
			]
		},
		{
			"name":"CajaA11",
			"scale":[
				1.2316508293151855,
				1.2316508293151855,
				1.2316508293151855
			],
			"translation":[
				-50.107627868652344,
				-0.41223999857902527,
				24.8178653717041
			]
		},
		{
			"name":"CajaL18",
			"rotation":[
				0,
				0.7071069478988647,
				0,
				0.7071066498756409
			],
			"scale":[
				1.231650948524475,
				1.2316508293151855,
				1.231650948524475
			],
			"translation":[
				-19.23246192932129,
				3.5701208114624023,
				64.91952514648438
			]
		},
		{
			"name":"CajaS35",
			"rotation":[
				0.6821475625038147,
				0.18621183931827545,
				-0.18621186912059784,
				0.6821474432945251
			],
			"scale":[
				1.2316508293151855,
				1.231650948524475,
				1.2316508293151855
			],
			"translation":[
				-46.469852447509766,
				-6.651378631591797,
				52.246429443359375
			]
		},
		{
			"name":"CajaS32",
			"rotation":[
				0,
				0.7071069478988647,
				0,
				0.7071066498756409
			],
			"scale":[
				1.231650948524475,
				1.2316508293151855,
				1.231650948524475
			],
			"translation":[
				0.9459375739097595,
				3.5737674236297607,
				63.96916580200195
			]
		},
		{
			"name":"CajaS37",
			"scale":[
				1.2316508293151855,
				1.2316508293151855,
				1.2316508293151855
			],
			"translation":[
				-46.4285774230957,
				-0.1311531811952591,
				28.996078491210938
			]
		},
		{
			"name":"CajaS34",
			"rotation":[
				0,
				0.7071069478988647,
				0,
				0.7071066498756409
			],
			"scale":[
				1.231650948524475,
				1.2316508293151855,
				1.231650948524475
			],
			"translation":[
				3.6032040119171143,
				2.3759303092956543,
				65.09049987792969
			]
		},
		{
			"name":"Barril10",
			"scale":[
				1.2316508293151855,
				1.2316508293151855,
				1.2316508293151855
			],
			"translation":[
				-57.40776824951172,
				0.04094576835632324,
				33.38707733154297
			]
		},
		{
			"name":"CajaA23",
			"rotation":[
				0,
				0.541753888130188,
				0,
				0.8405371904373169
			],
			"scale":[
				1.2316508293151855,
				1.2316508293151855,
				1.2316508293151855
			],
			"translation":[
				-29.547321319580078,
				-0.42866867780685425,
				65.64110565185547
			]
		},
		{
			"name":"CajaL25",
			"rotation":[
				0.6948091983795166,
				0.13130199909210205,
				-0.13130199909210205,
				0.6948091387748718
			],
			"scale":[
				1.231650948524475,
				1.231650948524475,
				1.2316508293151855
			],
			"translation":[
				-40.05717849731445,
				28.775230407714844,
				39.769203186035156
			]
		},
		{
			"name":"CajaS63",
			"rotation":[
				0,
				0.023429321125149727,
				0,
				0.9997255802154541
			],
			"scale":[
				1.2316508293151855,
				1.2316508293151855,
				1.2316508293151855
			],
			"translation":[
				-45.19892883300781,
				21.458213806152344,
				25.22349739074707
			]
		},
		{
			"name":"Barril5",
			"rotation":[
				0,
				0.97756028175354,
				0,
				0.21065592765808105
			],
			"scale":[
				1.2316508293151855,
				1.2316508293151855,
				1.2316508293151855
			],
			"translation":[
				81.71867370605469,
				0.04094576835632324,
				26.75008773803711
			]
		},
		{
			"name":"Barril3",
			"rotation":[
				0,
				0.8354880213737488,
				0,
				0.5495086908340454
			],
			"scale":[
				1.2316508293151855,
				1.2316508293151855,
				1.2316508293151855
			],
			"translation":[
				59.60667037963867,
				0.04094576835632324,
				57.19546127319336
			]
		},
		{
			"name":"CajaS78",
			"rotation":[
				0,
				0.7071069478988647,
				0,
				0.7071066498756409
			],
			"scale":[
				1.231650948524475,
				1.2316508293151855,
				1.231650948524475
			],
			"translation":[
				29.041776657104492,
				2.388659954071045,
				68.48646545410156
			]
		},
		{
			"mesh":0,
			"name":"LuzT2_Luz1_0"
		},
		{
			"children":[
				18
			],
			"name":"LuzT2",
			"scale":[
				2.4078078269958496,
				2.8613080978393555,
				2.4078078269958496
			],
			"translation":[
				33.11663818359375,
				19.282207489013672,
				23.0814266204834
			]
		},
		{
			"children":[
				19
			],
			"name":"lights"
		},
		{
			"children":[
				20
			],
			"name":"RootNode"
		},
		{
			"children":[
				21
			],
			"name":"355e6a7759ba41898bb1deb6c6ab4629.fbx",
			"rotation":[
				0.70710688829422,
				0,
				0,
				0.7071066498756409
			],
			"scale":[
				0.009999999776482582,
				0.009999999776482582,
				0.009999999776482582
			]
		},
		{
			"children":[
				22
			],
			"name":"Sketchfab_model",
			"rotation":[
				-0.70710688829422,
				0,
				0,
				0.7071066498756409
			],
			"scale":[
				32.07836151123047,
				32.07836151123047,
				32.07836151123047
			]
		}
	],
	"materials":[
		{
			"alphaMode":"BLEND",
			"doubleSided":true,
			"emissiveFactor":[
				1,
				1,
				1
			],
			"emissiveTexture":{
				"index":0
			},
			"name":"Luz1.001",
			"occlusionTexture":{
				"index":1
			},
			"pbrMetallicRoughness":{
				"baseColorTexture":{
					"index":2
				},
				"metallicRoughnessTexture":{
					"index":1
				}
			}
		}
	],
	"meshes":[
		{
			"name":"LuzT2_Luz1_0.001",
			"primitives":[
				{
					"attributes":{
						"POSITION":0,
						"NORMAL":1,
						"TEXCOORD_0":2
					},
					"indices":3,
					"material":0
				}
			]
		}
	],
	"textures":[
		{
			"sampler":0,
			"source":0
		},
		{
			"sampler":0,
			"source":1
		},
		{
			"sampler":0,
			"source":2
		}
	],
	"images":[
		{
			"mimeType":"image/png",
			"name":"Luz1_emissive",
			"uri":"Luz1_emissive.png"
		},
		{
			"mimeType":"image/png",
			"name":"Luz1_metallicRoughness",
			"uri":"Luz1_metallicRoughness.png"
		},
		{
			"mimeType":"image/png",
			"name":"Luz1_baseColor",
			"uri":"Luz1_baseColor.png"
		}
	],
	"accessors":[
		{
			"bufferView":0,
			"componentType":5126,
			"count":3726,
			"max":[
				0.2635050117969513,
				3.0444722175598145,
				-1.555044174194336
			],
			"min":[
				-0.7086975574493408,
				0.39980649948120117,
				-3.492027997970581
			],
			"type":"VEC3"
		},
		{
			"bufferView":1,
			"componentType":5126,
			"count":3726,
			"type":"VEC3"
		},
		{
			"bufferView":2,
			"componentType":5126,
			"count":3726,
			"type":"VEC2"
		},
		{
			"bufferView":3,
			"componentType":5123,
			"count":8433,
			"type":"SCALAR"
		}
	],
	"bufferViews":[
		{
			"buffer":0,
			"byteLength":44712,
			"byteOffset":0,
			"target":34962
		},
		{
			"buffer":0,
			"byteLength":44712,
			"byteOffset":44712,
			"target":34962
		},
		{
			"buffer":0,
			"byteLength":29808,
			"byteOffset":89424,
			"target":34962
		},
		{
			"buffer":0,
			"byteLength":16866,
			"byteOffset":119232,
			"target":34963
		}
	],
	"samplers":[
		{
			"magFilter":9729,
			"minFilter":9987
		}
	],
	"buffers":[
		{
			"byteLength":136100,
			"uri":"lus.bin"
		}
	]
}
