{
	"asset":{
		"generator":"Khronos glTF Blender I/O v4.3.47",
		"version":"2.0"
	},
	"scene":0,
	"scenes":[
		{
			"name":"Scene",
			"nodes":[
				0,
				1,
				3,
				5,
				6,
				7,
				8,
				9,
				10,
				11,
				12,
				37
			]
		}
	],
	"nodes":[
		{
			"name":"Viga3",
			"scale":[
				1.0929218530654907,
				1.0929218530654907,
				1.0929218530654907
			],
			"translation":[
				0,
				-0.2701879143714905,
				67.37169647216797
			]
		},
		{
			"name":"LuzT1",
			"rotation":[
				0,
				1,
				0,
				6.123234262925839e-17
			],
			"scale":[
				2.4078078269958496,
				2.8613078594207764,
				2.4078078269958496
			],
			"translation":[
				24.59848403930664,
				25.707094192504883,
				-39.4000129699707
			]
		},
		{
			"name":"Object_39"
		},
		{
			"children":[
				2
			],
			"name":"cajas:left",
			"translation":[
				-1000.0999755859375,
				1.141592025756836,
				-7.14445686340332
			]
		},
		{
			"name":"Object_48"
		},
		{
			"children":[
				4
			],
			"name":"left",
			"translation":[
				-1000.0999755859375,
				-2.8738067150115967,
				26.75244140625
			]
		},
		{
			"name":"CajaL18",
			"rotation":[
				0,
				0.70710688829422,
				0,
				0.7071067094802856
			],
			"scale":[
				1.231650948524475,
				1.2316508293151855,
				1.231650948524475
			],
			"translation":[
				-19.23246192932129,
				3.5701208114624023,
				64.91952514648438
			]
		},
		{
			"name":"CajaS32",
			"rotation":[
				0,
				0.70710688829422,
				0,
				0.7071067094802856
			],
			"scale":[
				1.231650948524475,
				1.2316508293151855,
				1.231650948524475
			],
			"translation":[
				0.9459375739097595,
				3.5737674236297607,
				63.96916580200195
			]
		},
		{
			"name":"CajaS34",
			"rotation":[
				0,
				0.70710688829422,
				0,
				0.7071067094802856
			],
			"scale":[
				1.231650948524475,
				1.2316508293151855,
				1.231650948524475
			],
			"translation":[
				3.6032040119171143,
				2.3759303092956543,
				65.09049987792969
			]
		},
		{
			"name":"Barril10",
			"scale":[
				1.2316508293151855,
				1.2316508293151855,
				1.2316508293151855
			],
			"translation":[
				-57.40776824951172,
				0.04094576835632324,
				33.38707733154297
			]
		},
		{
			"name":"CajaA23",
			"rotation":[
				0,
				0.541753888130188,
				0,
				0.8405371904373169
			],
			"scale":[
				1.2316508293151855,
				1.2316508293151855,
				1.2316508293151855
			],
			"translation":[
				-29.547321319580078,
				-0.42866867780685425,
				65.64110565185547
			]
		},
		{
			"name":"CajaS68",
			"rotation":[
				0,
				-0.7510144710540771,
				0,
				0.6602857708930969
			],
			"scale":[
				1.231650710105896,
				1.2316508293151855,
				1.231650710105896
			],
			"translation":[
				-7.315512657165527,
				21.484872817993164,
				-63.6437873840332
			]
		},
		{
			"name":"CajaS78",
			"rotation":[
				0,
				0.70710688829422,
				0,
				0.7071067094802856
			],
			"scale":[
				1.231650948524475,
				1.2316508293151855,
				1.231650948524475
			],
			"translation":[
				29.041776657104492,
				2.388659954071045,
				68.48646545410156
			]
		},
		{
			"mesh":0,
			"name":"Parte_Estructura_C_0"
		},
		{
			"children":[
				13
			],
			"name":"Parte",
			"scale":[
				1.0929218530654907,
				1.0929218530654907,
				1.0929218530654907
			],
			"translation":[
				0,
				-0.2701879143714905,
				0
			]
		},
		{
			"mesh":1,
			"name":"Parte1_Estructura_C_0",
			"translation":[
				0,
				0,
				3.814697265625e-06
			]
		},
		{
			"children":[
				15
			],
			"name":"Parte1",
			"scale":[
				1.0929218530654907,
				1.0929218530654907,
				1.0929218530654907
			],
			"translation":[
				0,
				-0.2701879143714905,
				23.716405868530273
			]
		},
		{
			"mesh":2,
			"name":"Parte2_Estructura_C_0",
			"translation":[
				0,
				0,
				7.62939453125e-06
			]
		},
		{
			"children":[
				17
			],
			"name":"Parte2",
			"scale":[
				1.0929218530654907,
				1.0929218530654907,
				1.0929218530654907
			],
			"translation":[
				0,
				-0.2701879143714905,
				47.43281173706055
			]
		},
		{
			"mesh":3,
			"name":"Viga_Estructura_V_0"
		},
		{
			"children":[
				19
			],
			"name":"Viga",
			"scale":[
				1.0929218530654907,
				1.0929218530654907,
				1.0929218530654907
			],
			"translation":[
				0,
				-0.27712902426719666,
				-3.7775158882141113
			]
		},
		{
			"mesh":4,
			"name":"Viga1_Estructura_V_0"
		},
		{
			"children":[
				21
			],
			"name":"Viga1",
			"scale":[
				1.0929218530654907,
				1.0929218530654907,
				1.0929218530654907
			],
			"translation":[
				0,
				-0.2701879143714905,
				19.938888549804688
			]
		},
		{
			"mesh":5,
			"name":"Viga2_Estructura_V_0"
		},
		{
			"children":[
				23
			],
			"name":"Viga2",
			"scale":[
				1.0929218530654907,
				1.0929218530654907,
				1.0929218530654907
			],
			"translation":[
				0,
				-0.2701879143714905,
				43.655296325683594
			]
		},
		{
			"mesh":6,
			"name":"Viga3_Estructura_V_0",
			"translation":[
				0,
				0,
				3.814697265625e-06
			]
		},
		{
			"children":[
				25
			],
			"name":"Viga3.001",
			"scale":[
				1.0929218530654907,
				1.0929218530654907,
				1.0929218530654907
			],
			"translation":[
				0,
				-0.2701879143714905,
				67.37169647216797
			]
		},
		{
			"children":[
				14,
				16,
				18,
				20,
				22,
				24,
				26
			],
			"name":"estructura"
		},
		{
			"mesh":7,
			"name":"Estructuratop_Estructura_C_0"
		},
		{
			"children":[
				28
			],
			"name":"Estructuratop",
			"scale":[
				0.5229377150535583,
				1,
				74.43989562988281
			],
			"translation":[
				-0.9217489361763,
				21.980009078979492,
				0.2537410855293274
			]
		},
		{
			"mesh":8,
			"name":"Estructuratop2_Estructura_C_0"
		},
		{
			"children":[
				30
			],
			"name":"Estructuratop2",
			"rotation":[
				0,
				1,
				0,
				6.123234262925839e-17
			],
			"scale":[
				0.5229377150535583,
				1,
				74.43989562988281
			],
			"translation":[
				-10.134512901306152,
				21.980009078979492,
				0.2537410855293274
			]
		},
		{
			"children":[
				27,
				29,
				31
			],
			"name":"base"
		},
		{
			"name":"CajaA4",
			"scale":[
				1.231650948524475,
				1.2316508293151855,
				1.2316508293151855
			],
			"translation":[
				-46.12472152709961,
				-0.3936622440814972,
				3.4955790042877197
			]
		},
		{
			"children":[
				33
			],
			"name":"LotOfBoxes"
		},
		{
			"children":[
				32,
				34
			],
			"name":"RootNode"
		},
		{
			"children":[
				35
			],
			"name":"355e6a7759ba41898bb1deb6c6ab4629.fbx",
			"rotation":[
				0.70710688829422,
				0,
				0,
				0.7071066498756409
			],
			"scale":[
				0.009999999776482582,
				0.010000000707805157,
				0.010000000707805157
			]
		},
		{
			"children":[
				36
			],
			"name":"Sketchfab_model",
			"rotation":[
				-0.70710688829422,
				0,
				0,
				0.7071066498756409
			],
			"scale":[
				32.07836151123047,
				32.078365325927734,
				32.078365325927734
			]
		}
	],
	"materials":[
		{
			"doubleSided":true,
			"name":"Estructura_C.001",
			"occlusionTexture":{
				"index":0
			},
			"pbrMetallicRoughness":{
				"baseColorTexture":{
					"index":1
				},
				"metallicRoughnessTexture":{
					"index":0
				}
			}
		},
		{
			"doubleSided":true,
			"name":"Estructura_V.001",
			"occlusionTexture":{
				"index":2
			},
			"pbrMetallicRoughness":{
				"baseColorTexture":{
					"index":3
				},
				"metallicRoughnessTexture":{
					"index":2
				}
			}
		}
	],
	"meshes":[
		{
			"name":"Parte_Estructura_C_0.001",
			"primitives":[
				{
					"attributes":{
						"POSITION":0,
						"NORMAL":1,
						"TEXCOORD_0":2
					},
					"indices":3,
					"material":0
				}
			]
		},
		{
			"name":"Parte1_Estructura_C_0.001",
			"primitives":[
				{
					"attributes":{
						"POSITION":4,
						"NORMAL":5,
						"TEXCOORD_0":6
					},
					"indices":3,
					"material":0
				}
			]
		},
		{
			"name":"Parte2_Estructura_C_0.001",
			"primitives":[
				{
					"attributes":{
						"POSITION":7,
						"NORMAL":8,
						"TEXCOORD_0":9
					},
					"indices":3,
					"material":0
				}
			]
		},
		{
			"name":"Viga_Estructura_V_0.001",
			"primitives":[
				{
					"attributes":{
						"POSITION":10,
						"NORMAL":11,
						"TEXCOORD_0":12
					},
					"indices":13,
					"material":1
				}
			]
		},
		{
			"name":"Viga1_Estructura_V_0.001",
			"primitives":[
				{
					"attributes":{
						"POSITION":14,
						"NORMAL":15,
						"TEXCOORD_0":16
					},
					"indices":13,
					"material":1
				}
			]
		},
		{
			"name":"Viga2_Estructura_V_0.001",
			"primitives":[
				{
					"attributes":{
						"POSITION":17,
						"NORMAL":18,
						"TEXCOORD_0":19
					},
					"indices":13,
					"material":1
				}
			]
		},
		{
			"name":"Viga3_Estructura_V_0.001",
			"primitives":[
				{
					"attributes":{
						"POSITION":20,
						"NORMAL":21,
						"TEXCOORD_0":22
					},
					"indices":13,
					"material":1
				}
			]
		},
		{
			"name":"Estructuratop_Estructura_C_0.001",
			"primitives":[
				{
					"attributes":{
						"POSITION":23,
						"NORMAL":24,
						"TEXCOORD_0":25
					},
					"indices":26,
					"material":0
				}
			]
		},
		{
			"name":"Estructuratop2_Estructura_C_0.001",
			"primitives":[
				{
					"attributes":{
						"POSITION":27,
						"NORMAL":28,
						"TEXCOORD_0":29
					},
					"indices":26,
					"material":0
				}
			]
		}
	],
	"textures":[
		{
			"sampler":0,
			"source":0
		},
		{
			"sampler":0,
			"source":1
		},
		{
			"sampler":0,
			"source":2
		},
		{
			"sampler":0,
			"source":3
		}
	],
	"images":[
		{
			"mimeType":"image/png",
			"name":"Image_3",
			"uri":"Image_3.png"
		},
		{
			"mimeType":"image/png",
			"name":"Image_2",
			"uri":"Image_2.png"
		},
		{
			"mimeType":"image/png",
			"name":"Image_1",
			"uri":"Image_1.png"
		},
		{
			"mimeType":"image/png",
			"name":"Image_0",
			"uri":"Image_0.png"
		}
	],
	"accessors":[
		{
			"bufferView":0,
			"componentType":5126,
			"count":1011,
			"max":[
				-0.6149787902832031,
				19.758758544921875,
				-12.340959548950195
			],
			"min":[
				-9.523441314697266,
				8.634008407592773,
				-30.560266494750977
			],
			"type":"VEC3"
		},
		{
			"bufferView":1,
			"componentType":5126,
			"count":1011,
			"type":"VEC3"
		},
		{
			"bufferView":2,
			"componentType":5126,
			"count":1011,
			"type":"VEC2"
		},
		{
			"bufferView":3,
			"componentType":5123,
			"count":1812,
			"type":"SCALAR"
		},
		{
			"bufferView":4,
			"componentType":5126,
			"count":1011,
			"max":[
				-0.6149787902832031,
				19.758758544921875,
				-12.340959548950195
			],
			"min":[
				-9.523441314697266,
				8.634008407592773,
				-30.560266494750977
			],
			"type":"VEC3"
		},
		{
			"bufferView":5,
			"componentType":5126,
			"count":1011,
			"type":"VEC3"
		},
		{
			"bufferView":6,
			"componentType":5126,
			"count":1011,
			"type":"VEC2"
		},
		{
			"bufferView":7,
			"componentType":5126,
			"count":1011,
			"max":[
				-0.6149787902832031,
				19.758758544921875,
				-12.340959548950195
			],
			"min":[
				-9.523441314697266,
				8.634008407592773,
				-30.560266494750977
			],
			"type":"VEC3"
		},
		{
			"bufferView":8,
			"componentType":5126,
			"count":1011,
			"type":"VEC3"
		},
		{
			"bufferView":9,
			"componentType":5126,
			"count":1011,
			"type":"VEC2"
		},
		{
			"bufferView":10,
			"componentType":5126,
			"count":9758,
			"max":[
				0.6718019247055054,
				19.916181564331055,
				-26.508007049560547
			],
			"min":[
				-10.708251953125,
				0.1370028257369995,
				-31.202743530273438
			],
			"type":"VEC3"
		},
		{
			"bufferView":11,
			"componentType":5126,
			"count":9758,
			"type":"VEC3"
		},
		{
			"bufferView":12,
			"componentType":5126,
			"count":9758,
			"type":"VEC2"
		},
		{
			"bufferView":13,
			"componentType":5123,
			"count":15936,
			"type":"SCALAR"
		},
		{
			"bufferView":14,
			"componentType":5126,
			"count":9758,
			"max":[
				0.6718019247055054,
				19.916181564331055,
				-26.508007049560547
			],
			"min":[
				-10.708251953125,
				0.1370028257369995,
				-31.202743530273438
			],
			"type":"VEC3"
		},
		{
			"bufferView":15,
			"componentType":5126,
			"count":9758,
			"type":"VEC3"
		},
		{
			"bufferView":16,
			"componentType":5126,
			"count":9758,
			"type":"VEC2"
		},
		{
			"bufferView":17,
			"componentType":5126,
			"count":9758,
			"max":[
				0.6718019247055054,
				19.916181564331055,
				-26.508007049560547
			],
			"min":[
				-10.708251953125,
				0.1370028257369995,
				-31.202743530273438
			],
			"type":"VEC3"
		},
		{
			"bufferView":18,
			"componentType":5126,
			"count":9758,
			"type":"VEC3"
		},
		{
			"bufferView":19,
			"componentType":5126,
			"count":9758,
			"type":"VEC2"
		},
		{
			"bufferView":20,
			"componentType":5126,
			"count":9758,
			"max":[
				0.6718019247055054,
				19.916181564331055,
				-26.508007049560547
			],
			"min":[
				-10.708251953125,
				0.1370028257369995,
				-31.202743530273438
			],
			"type":"VEC3"
		},
		{
			"bufferView":21,
			"componentType":5126,
			"count":9758,
			"type":"VEC3"
		},
		{
			"bufferView":22,
			"componentType":5126,
			"count":9758,
			"type":"VEC2"
		},
		{
			"bufferView":23,
			"componentType":5126,
			"count":24,
			"max":[
				0.49999988079071045,
				0.5,
				0.5043039321899414
			],
			"min":[
				-0.5,
				-0.5,
				-0.5041688680648804
			],
			"type":"VEC3"
		},
		{
			"bufferView":24,
			"componentType":5126,
			"count":24,
			"type":"VEC3"
		},
		{
			"bufferView":25,
			"componentType":5126,
			"count":24,
			"type":"VEC2"
		},
		{
			"bufferView":26,
			"componentType":5123,
			"count":36,
			"type":"SCALAR"
		},
		{
			"bufferView":27,
			"componentType":5126,
			"count":24,
			"max":[
				0.49999988079071045,
				0.5,
				0.5043039321899414
			],
			"min":[
				-0.5,
				-0.5,
				-0.5041688680648804
			],
			"type":"VEC3"
		},
		{
			"bufferView":28,
			"componentType":5126,
			"count":24,
			"type":"VEC3"
		},
		{
			"bufferView":29,
			"componentType":5126,
			"count":24,
			"type":"VEC2"
		}
	],
	"bufferViews":[
		{
			"buffer":0,
			"byteLength":12132,
			"byteOffset":0,
			"target":34962
		},
		{
			"buffer":0,
			"byteLength":12132,
			"byteOffset":12132,
			"target":34962
		},
		{
			"buffer":0,
			"byteLength":8088,
			"byteOffset":24264,
			"target":34962
		},
		{
			"buffer":0,
			"byteLength":3624,
			"byteOffset":32352,
			"target":34963
		},
		{
			"buffer":0,
			"byteLength":12132,
			"byteOffset":35976,
			"target":34962
		},
		{
			"buffer":0,
			"byteLength":12132,
			"byteOffset":48108,
			"target":34962
		},
		{
			"buffer":0,
			"byteLength":8088,
			"byteOffset":60240,
			"target":34962
		},
		{
			"buffer":0,
			"byteLength":12132,
			"byteOffset":68328,
			"target":34962
		},
		{
			"buffer":0,
			"byteLength":12132,
			"byteOffset":80460,
			"target":34962
		},
		{
			"buffer":0,
			"byteLength":8088,
			"byteOffset":92592,
			"target":34962
		},
		{
			"buffer":0,
			"byteLength":117096,
			"byteOffset":100680,
			"target":34962
		},
		{
			"buffer":0,
			"byteLength":117096,
			"byteOffset":217776,
			"target":34962
		},
		{
			"buffer":0,
			"byteLength":78064,
			"byteOffset":334872,
			"target":34962
		},
		{
			"buffer":0,
			"byteLength":31872,
			"byteOffset":412936,
			"target":34963
		},
		{
			"buffer":0,
			"byteLength":117096,
			"byteOffset":444808,
			"target":34962
		},
		{
			"buffer":0,
			"byteLength":117096,
			"byteOffset":561904,
			"target":34962
		},
		{
			"buffer":0,
			"byteLength":78064,
			"byteOffset":679000,
			"target":34962
		},
		{
			"buffer":0,
			"byteLength":117096,
			"byteOffset":757064,
			"target":34962
		},
		{
			"buffer":0,
			"byteLength":117096,
			"byteOffset":874160,
			"target":34962
		},
		{
			"buffer":0,
			"byteLength":78064,
			"byteOffset":991256,
			"target":34962
		},
		{
			"buffer":0,
			"byteLength":117096,
			"byteOffset":1069320,
			"target":34962
		},
		{
			"buffer":0,
			"byteLength":117096,
			"byteOffset":1186416,
			"target":34962
		},
		{
			"buffer":0,
			"byteLength":78064,
			"byteOffset":1303512,
			"target":34962
		},
		{
			"buffer":0,
			"byteLength":288,
			"byteOffset":1381576,
			"target":34962
		},
		{
			"buffer":0,
			"byteLength":288,
			"byteOffset":1381864,
			"target":34962
		},
		{
			"buffer":0,
			"byteLength":192,
			"byteOffset":1382152,
			"target":34962
		},
		{
			"buffer":0,
			"byteLength":72,
			"byteOffset":1382344,
			"target":34963
		},
		{
			"buffer":0,
			"byteLength":288,
			"byteOffset":1382416,
			"target":34962
		},
		{
			"buffer":0,
			"byteLength":288,
			"byteOffset":1382704,
			"target":34962
		},
		{
			"buffer":0,
			"byteLength":192,
			"byteOffset":1382992,
			"target":34962
		}
	],
	"samplers":[
		{
			"magFilter":9729,
			"minFilter":9987
		}
	],
	"buffers":[
		{
			"byteLength":1383184,
			"uri":"estructura.bin"
		}
	]
}
