{
	"asset":{
		"generator":"Khronos glTF Blender I/O v4.3.47",
		"version":"2.0"
	},
	"scene":0,
	"scenes":[
		{
			"name":"Scene",
			"nodes":[
				0,
				1,
				2,
				3,
				4,
				5,
				6,
				7,
				8,
				9,
				10,
				16
			]
		}
	],
	"nodes":[
		{
			"name":"CajaL12",
			"rotation":[
				0,
				-0.7313537001609802,
				0,
				0.6819983720779419
			],
			"scale":[
				1.2316508293151855,
				1.2316508293151855,
				1.2316508293151855
			],
			"translation":[
				0.8198323845863342,
				-0.18657593429088593,
				-52.31155014038086
			]
		},
		{
			"name":"Barril8",
			"rotation":[
				0,
				-0.7758957147598267,
				0,
				0.6308613419532776
			],
			"scale":[
				1.2316508293151855,
				1.2316508293151855,
				1.2316508293151855
			],
			"translation":[
				0.7566750645637512,
				0.04094576835632324,
				-67.11326599121094
			]
		},
		{
			"name":"CajaS53",
			"rotation":[
				0,
				-0.6823313236236572,
				0,
				0.7310430407524109
			],
			"scale":[
				1.2316508293151855,
				1.2316508293151855,
				1.2316508293151855
			],
			"translation":[
				-15.301558494567871,
				1.5134809017181396,
				-71.93414306640625
			]
		},
		{
			"name":"CajaS54",
			"rotation":[
				0,
				-0.9994066953659058,
				0,
				0.0344444178044796
			],
			"scale":[
				1.231650948524475,
				1.2316508293151855,
				1.231650948524475
			],
			"translation":[
				34.73098373413086,
				-0.1311531811952591,
				-44.310428619384766
			]
		},
		{
			"name":"CajaS66",
			"rotation":[
				0,
				-0.70710688829422,
				0,
				0.7071067094802856
			],
			"scale":[
				1.231650948524475,
				1.2316508293151855,
				1.231650948524475
			],
			"translation":[
				-23.55760383605957,
				-0.1311531811952591,
				-68.22026824951172
			]
		},
		{
			"name":"CajaS52",
			"rotation":[
				0,
				-0.697068989276886,
				0,
				0.717004120349884
			],
			"scale":[
				1.231650948524475,
				1.2316508293151855,
				1.231650948524475
			],
			"translation":[
				-8.649909973144531,
				-0.1311531811952591,
				-55.82155990600586
			]
		},
		{
			"name":"CajaS68",
			"rotation":[
				0,
				-0.7510144710540771,
				0,
				0.6602857708930969
			],
			"scale":[
				1.231650710105896,
				1.2316508293151855,
				1.231650710105896
			],
			"translation":[
				-7.315512657165527,
				21.484872817993164,
				-63.6437873840332
			]
		},
		{
			"name":"CajaL28",
			"rotation":[
				0,
				-0.7777664661407471,
				0,
				0.6285533308982849
			],
			"scale":[
				1.231650948524475,
				1.2316508293151855,
				1.231650948524475
			],
			"translation":[
				47.829673767089844,
				-0.1799212098121643,
				-53.219520568847656
			]
		},
		{
			"name":"Barril5",
			"rotation":[
				0,
				0.97756028175354,
				0,
				0.21065592765808105
			],
			"scale":[
				1.2316508293151855,
				1.2316508293151855,
				1.2316508293151855
			],
			"translation":[
				81.71867370605469,
				0.04094576835632324,
				26.75008773803711
			]
		},
		{
			"name":"CajaA34",
			"rotation":[
				0,
				-0.9890769124031067,
				0,
				0.14740027487277985
			],
			"scale":[
				1.2316508293151855,
				1.2316508293151855,
				1.2316508293151855
			],
			"translation":[
				54.9830322265625,
				2.133859395980835,
				-43.4624137878418
			]
		},
		{
			"name":"CajaS80",
			"rotation":[
				0,
				-0.70710688829422,
				0,
				0.7071067094802856
			],
			"scale":[
				1.231650948524475,
				1.2316508293151855,
				1.231650948524475
			],
			"translation":[
				12.999361038208008,
				2.3871123790740967,
				-58.390625
			]
		},
		{
			"mesh":0,
			"name":"CajaA36_cajas:Caja1_0"
		},
		{
			"children":[
				11
			],
			"name":"CajaA36",
			"scale":[
				1.231650948524475,
				1.2316508293151855,
				1.2316508293151855
			],
			"translation":[
				3.959850311279297,
				-0.41223999857902527,
				-9.404317855834961
			]
		},
		{
			"children":[
				12
			],
			"name":"lot_of_boxes4"
		},
		{
			"children":[
				13
			],
			"name":"RootNode"
		},
		{
			"children":[
				14
			],
			"name":"355e6a7759ba41898bb1deb6c6ab4629.fbx",
			"rotation":[
				0.70710688829422,
				0,
				0,
				0.7071066498756409
			],
			"scale":[
				0.009999999776482582,
				0.010000000707805157,
				0.010000000707805157
			]
		},
		{
			"children":[
				15
			],
			"name":"Sketchfab_model",
			"rotation":[
				-0.70710688829422,
				0,
				0,
				0.7071066498756409
			],
			"scale":[
				32.07836151123047,
				32.078365325927734,
				32.078365325927734
			]
		}
	],
	"materials":[
		{
			"doubleSided":true,
			"name":"cajasCaja1.001",
			"occlusionTexture":{
				"index":0
			},
			"pbrMetallicRoughness":{
				"baseColorTexture":{
					"index":1
				},
				"metallicRoughnessTexture":{
					"index":0
				}
			}
		}
	],
	"meshes":[
		{
			"name":"CajaA36_cajas:Caja1_0.001",
			"primitives":[
				{
					"attributes":{
						"POSITION":0,
						"NORMAL":1,
						"TEXCOORD_0":2
					},
					"indices":3,
					"material":0
				}
			]
		}
	],
	"textures":[
		{
			"sampler":0,
			"source":0
		},
		{
			"sampler":0,
			"source":1
		}
	],
	"images":[
		{
			"mimeType":"image/png",
			"name":"cajasCaja1_metallicRoughness",
			"uri":"cajasCaja1_metallicRoughness.png"
		},
		{
			"mimeType":"image/png",
			"name":"cajasCaja1_baseColor",
			"uri":"cajasCaja1_baseColor.png"
		}
	],
	"accessors":[
		{
			"bufferView":0,
			"componentType":5126,
			"count":268,
			"max":[
				29.021236419677734,
				2.2630016803741455,
				1.72385573387146
			],
			"min":[
				27.117509841918945,
				0.19689154624938965,
				-1.72385573387146
			],
			"type":"VEC3"
		},
		{
			"bufferView":1,
			"componentType":5126,
			"count":268,
			"type":"VEC3"
		},
		{
			"bufferView":2,
			"componentType":5126,
			"count":268,
			"type":"VEC2"
		},
		{
			"bufferView":3,
			"componentType":5123,
			"count":420,
			"type":"SCALAR"
		}
	],
	"bufferViews":[
		{
			"buffer":0,
			"byteLength":3216,
			"byteOffset":0,
			"target":34962
		},
		{
			"buffer":0,
			"byteLength":3216,
			"byteOffset":3216,
			"target":34962
		},
		{
			"buffer":0,
			"byteLength":2144,
			"byteOffset":6432,
			"target":34962
		},
		{
			"buffer":0,
			"byteLength":840,
			"byteOffset":8576,
			"target":34963
		}
	],
	"samplers":[
		{
			"magFilter":9729,
			"minFilter":9987
		}
	],
	"buffers":[
		{
			"byteLength":9416,
			"uri":"caga.bin"
		}
	]
}
